<svg width="0" height="0" class="hidden">
  <symbol version="1.1" xmlns="http://www.w3.org/2000/svg" viewBox="0 0 32 32" id="arrow_header">
    <title>arrow_header</title>
    <path fill="#8baa36" d="M25.605 15.158c0 0 0 0 0 0l-0.462 1.329c-0.005 0.015-0.007 0.032-0.003 0.047s0.010 0.031 0.021 0.043l0.905 1.023c0.082 0.096 0.241 0.040 0.245-0.086l0.125-3.696c0.001-0.026-0.005-0.051-0.018-0.073s-0.032-0.040-0.054-0.052c-0.023-0.012-0.049-0.018-0.074-0.016s-0.051 0.010-0.072 0.025l-3.060 2.137c-0.104 0.073-0.064 0.234 0.062 0.249l1.364 0.182c0.016 0.002 0.033 0 0.048-0.006s0.028-0.016 0.039-0.029l0.871-1.112c0.006-0.007 0.013-0.011 0.022-0.013s0.017-0.001 0.025 0.004c0.008 0.004 0.014 0.011 0.017 0.019s0.003 0.017 0.001 0.025c0 0 0 0-0 0z"></path>
    <path fill="none" stroke="#8baa36" stroke-linejoin="round" stroke-linecap="butt" stroke-miterlimit="4" stroke-width="0.5161" d="M3.659 12.557c2.555 2.14 8.685 9.326 11.524 4.835 3.549-5.614-5.999-5.903-5.609-1.059s9.186 8.33 15.238 0.419"></path>
  </symbol>
  <symbol version="1.1" xmlns="http://www.w3.org/2000/svg" viewBox="0 0 32 32" id="chevron">
    <title>chevron</title>
    <path fill="none" stroke="#8baa36" stroke-linejoin="round" stroke-linecap="round" stroke-miterlimit="4" stroke-width="3.2" d="M8 12l8 8 8-8"></path>
  </symbol>
  <symbol version="1.1" xmlns="http://www.w3.org/2000/svg" viewBox="0 0 32 32" id="cross">
    <title>cross</title>
    <path fill="none" stroke-linejoin="round" stroke-linecap="round" stroke-miterlimit="4" stroke-width="2.2857" stroke="#000" d="M24.571 7.429l-17.143 17.143"></path>
    <path fill="none" stroke-linejoin="round" stroke-linecap="round" stroke-miterlimit="4" stroke-width="2.2857" stroke="#000" d="M24.571 24.571l-17.143-17.143"></path>
  </symbol>
  <symbol version="1.1" xmlns="http://www.w3.org/2000/svg" viewBox="0 0 30 32" id="fb">
    <title>fb</title>
    <path fill="#8baa36" d="M30.476 16.092c0-8.466-6.823-15.33-15.238-15.33s-15.238 6.864-15.238 15.33c0 7.651 5.571 13.994 12.857 15.145v-10.712h-3.87v-4.433h3.87v-3.377c0-3.841 2.276-5.965 5.756-5.965 1.667 0 3.412 0.3 3.412 0.3v3.773h-1.922c-1.892 0-2.484 1.181-2.484 2.395v2.874h4.226l-0.675 4.433h-3.55v10.713c7.286-1.15 12.857-7.493 12.857-15.146z"></path>
  </symbol>
  <symbol version="1.1" xmlns="http://www.w3.org/2000/svg" viewBox="0 0 32 32" id="Icon_close">
    <title>Icon_close</title>
    <path d="M29.335 2.667l-26.667 26.667zM2.668 2.667l26.667 26.667z"></path>
  </symbol>
  <symbol version="1.1" xmlns="http://www.w3.org/2000/svg" viewBox="0 0 32 32" id="icon_user">
    <title>icon_user</title>
    <path fill="none" stroke-linejoin="round" stroke-linecap="round" stroke-miterlimit="4" stroke-width="3" stroke="#000" d="M28 29.071c0-2.093 0-3.14-0.258-3.992-0.582-1.918-2.082-3.418-4-4-0.852-0.258-1.898-0.258-3.992-0.258h-7.5c-2.093 0-3.14 0-3.992 0.258-1.918 0.582-3.418 2.082-4 4-0.258 0.852-0.258 1.898-0.258 3.992M22.75 8.821c0 3.728-3.022 6.75-6.75 6.75s-6.75-3.022-6.75-6.75c0-3.728 3.022-6.75 6.75-6.75s6.75 3.022 6.75 6.75z"></path>
  </symbol>
  <symbol version="1.1" xmlns="http://www.w3.org/2000/svg" viewBox="0 0 32 32" id="icon-arrow-narrow-right">
    <title>icon-arrow-narrow-right</title>
    <path fill="none" stroke="#3e4462" stroke-linejoin="round" stroke-linecap="round" stroke-miterlimit="4" stroke-width="3.2" d="M3.2 16h25.6M28.8 16l-9.6-9.6M28.8 16l-9.6 9.6"></path>
  </symbol>
  <symbol version="1.1" xmlns="http://www.w3.org/2000/svg" viewBox="0 0 32 32" id="icon-arrow-right">
    <title>icon-arrow-right</title>
    <path fill="none" stroke="#3e4462" stroke-linejoin="round" stroke-linecap="round" stroke-miterlimit="4" stroke-width="3.2" d="M3.2 16h25.6M28.8 16l-9.6-9.6M28.8 16l-9.6 9.6"></path>
  </symbol>
  <symbol version="1.1" xmlns="http://www.w3.org/2000/svg" viewBox="0 0 32 32" id="Iconburger-menu">
    <title>Iconburger-menu</title>
    <path fill="none" stroke-linejoin="round" stroke-linecap="round" stroke-miterlimit="4" stroke-width="2.8571" stroke="#000" d="M2.286 16h27.429M2.286 6.857h27.429M2.286 25.143h18.286"></path>
  </symbol>
  <symbol version="1.1" xmlns="http://www.w3.org/2000/svg" viewBox="0 0 32 32" id="icon-clock">
    <title>icon-clock</title>
    <path fill="none" stroke-linejoin="round" stroke-linecap="round" stroke-miterlimit="4" stroke-width="2.9714" stroke="#000" d="M15.998 29.334c7.364 0 13.333-5.97 13.333-13.333s-5.97-13.333-13.333-13.333-13.333 5.97-13.333 13.333c0 7.364 5.97 13.333 13.333 13.333z"></path>
    <path fill="none" stroke-linejoin="round" stroke-linecap="round" stroke-miterlimit="4" stroke-width="2.9714" stroke="#000" d="M16 8v8l5.333 2.667"></path>
  </symbol>
  <symbol version="1.1" xmlns="http://www.w3.org/2000/svg" viewBox="0 0 32 32" id="icon-corner-left">
    <title>icon-corner-left</title>
    <path fill="#a9a9a9" opacity="0.73" d="M23.775 2.255c0.24 0.246 0.431 0.538 0.561 0.859s0.197 0.666 0.197 1.014c0 0.348-0.067 0.693-0.197 1.014s-0.321 0.614-0.561 0.859l-10.056 10.311 10.056 10.311c0.485 0.497 0.757 1.171 0.757 1.873s-0.272 1.377-0.757 1.873c-0.485 0.497-1.142 0.776-1.827 0.776s-1.343-0.279-1.827-0.776l-11.896-12.198c-0.24-0.246-0.431-0.538-0.561-0.859s-0.197-0.666-0.197-1.014c0-0.348 0.067-0.693 0.197-1.014s0.321-0.614 0.561-0.859l11.896-12.198c0.985-1.010 2.644-1.010 3.654 0.027z"></path>
  </symbol>
  <symbol version="1.1" xmlns="http://www.w3.org/2000/svg" viewBox="0 0 32 32" id="icon-corner-right">
    <title>icon-corner-right</title>
    <path fill="#a9a9a9" opacity="0.73" d="M8.225 2.255c-0.24 0.246-0.431 0.538-0.561 0.859s-0.197 0.666-0.197 1.014c0 0.348 0.067 0.693 0.197 1.014s0.321 0.614 0.561 0.859l10.056 10.311-10.056 10.311c-0.485 0.497-0.757 1.171-0.757 1.873s0.272 1.377 0.757 1.873c0.485 0.497 1.142 0.776 1.827 0.776s1.343-0.279 1.827-0.776l11.896-12.198c0.24-0.246 0.431-0.538 0.561-0.859s0.197-0.666 0.197-1.014c0-0.348-0.067-0.693-0.197-1.014s-0.321-0.614-0.561-0.859l-11.896-12.198c-0.985-1.010-2.644-1.010-3.654 0.027z"></path>
  </symbol>
  <symbol version="1.1" xmlns="http://www.w3.org/2000/svg" viewBox="0 0 32 32" id="icon-dropdown">
    <title>icon-dropdown</title>
    <path fill="none" stroke="#8baa36" stroke-linejoin="round" stroke-linecap="round" stroke-miterlimit="4" stroke-width="5.3333" d="M29.333 9.333l-13.333 13.333-13.333-13.333"></path>
  </symbol>
  <symbol version="1.1" xmlns="http://www.w3.org/2000/svg" viewBox="0 0 32 32" id="icon-edit">
    <title>icon-edit</title>
    <path stroke-linejoin="round" stroke-linecap="round" stroke-miterlimit="4" stroke-width="3.4667" stroke="#000" fill="#000" d="M2.251 14.574c0.046-0.414 0.069-0.62 0.131-0.813 0.055-0.171 0.134-0.335 0.233-0.485 0.112-0.169 0.259-0.317 0.553-0.611l10.29-10.29c0.874-0.874 2.292-0.874 3.167 0v0c0.874 0.874 0.874 2.292 0 3.167l-10.29 10.29c-0.294 0.294-0.441 0.441-0.611 0.553-0.15 0.099-0.314 0.178-0.485 0.233-0.193 0.063-0.4 0.085-0.813 0.131l-2.447 0.272 0.272-2.447z"></path>
  </symbol>
  <symbol version="1.1" xmlns="http://www.w3.org/2000/svg" viewBox="0 0 32 32" id="icon-envelope">
    <title>icon-envelope</title>
    <path fill="none" stroke="#fafafa" stroke-linejoin="round" stroke-linecap="round" stroke-miterlimit="4" stroke-width="2.1333" d="M4.622 5.333h22.756c0.754 0.002 1.476 0.284 2.009 0.783s0.833 1.177 0.836 1.883v16c-0.002 0.707-0.303 1.384-0.836 1.883s-1.255 0.781-2.009 0.783h-22.756c-0.754-0.002-1.476-0.284-2.009-0.783s-0.833-1.177-0.836-1.883v-16c0.002-0.707 0.303-1.384 0.836-1.883s1.255-0.781 2.009-0.783v0z"></path>
    <path fill="none" stroke="#fafafa" stroke-linejoin="round" stroke-linecap="round" stroke-miterlimit="4" stroke-width="2.1333" d="M30.222 7.999l-14.222 9.333-14.222-9.333"></path>
  </symbol>
  <symbol version="1.1" xmlns="http://www.w3.org/2000/svg" viewBox="0 0 32 32" id="icon-pick">
    <title>icon-pick</title>
    <path fill="#8baa36" d="M24.876 3.239c0.867-1.279 2.607-1.613 3.886-0.746s1.613 2.607 0.746 3.886l-15.174 22.381c-1.11 1.637-3.521 1.637-4.631 0l-7.207-10.631c-0.867-1.279-0.533-3.019 0.746-3.886s3.019-0.533 3.886 0.746l4.892 7.215 12.858-18.966z"></path>
  </symbol>
  <symbol version="1.1" xmlns="http://www.w3.org/2000/svg" viewBox="0 0 32 32" id="icon-search">
    <title>icon-search</title>
    <path fill="none" stroke-linejoin="round" stroke-linecap="round" stroke-miterlimit="4" stroke-width="2.6667" stroke="#000" d="M14.667 25.333c5.891 0 10.667-4.776 10.667-10.667s-4.776-10.667-10.667-10.667c-5.891 0-10.667 4.776-10.667 10.667s4.776 10.667 10.667 10.667z"></path>
    <path fill="none" stroke-linejoin="round" stroke-linecap="round" stroke-miterlimit="4" stroke-width="2.6667" stroke="#000" d="M28.001 28l-5.8-5.8"></path>
  </symbol>
  <symbol version="1.1" xmlns="http://www.w3.org/2000/svg" viewBox="0 0 32 32" id="icon-serach-hover">
    <title>icon-serach-hover</title>
    <path fill="none" stroke="#8baa36" stroke-linejoin="round" stroke-linecap="round" stroke-miterlimit="4" stroke-width="2.6667" d="M14.667 25.333c5.891 0 10.667-4.776 10.667-10.667s-4.776-10.667-10.667-10.667c-5.891 0-10.667 4.776-10.667 10.667s4.776 10.667 10.667 10.667z"></path>
    <path fill="none" stroke="#8baa36" stroke-linejoin="round" stroke-linecap="round" stroke-miterlimit="4" stroke-width="2.6667" d="M28.001 28l-5.8-5.8"></path>
  </symbol>
  <symbol version="1.1" xmlns="http://www.w3.org/2000/svg" viewBox="0 0 32 32" id="icon-trash">
    <title>icon-trash</title>
    <path fill="none" stroke-linejoin="round" stroke-linecap="round" stroke-miterlimit="4" stroke-width="2.7429" stroke="#000" d="M21.333 8v-1.067c0-1.493 0-2.24-0.291-2.811-0.256-0.502-0.664-0.91-1.165-1.165-0.57-0.291-1.317-0.291-2.811-0.291h-2.133c-1.493 0-2.24 0-2.811 0.291-0.502 0.256-0.91 0.664-1.165 1.165-0.291 0.57-0.291 1.317-0.291 2.811v1.067M13.333 15.333v6.667M18.667 15.333v6.667M4 8h24M25.333 8v14.933c0 2.24 0 3.36-0.436 4.216-0.384 0.753-0.995 1.365-1.748 1.748-0.856 0.436-1.976 0.436-4.216 0.436h-5.867c-2.24 0-3.36 0-4.216-0.436-0.753-0.384-1.365-0.995-1.748-1.748-0.436-0.856-0.436-1.976-0.436-4.216v-14.933"></path>
  </symbol>
  <symbol version="1.1" xmlns="http://www.w3.org/2000/svg" viewBox="0 0 32 32" id="icon-user-add-foto">
    <title>icon-user-add-foto</title>
    <path fill="#8baa36" d="M32 16c0 8.837-7.163 16-16 16s-16-7.163-16-16c0-8.837 7.163-16 16-16s16 7.163 16 16z"></path>
    <path fill="none" stroke="#fafafa" stroke-linejoin="round" stroke-linecap="round" stroke-miterlimit="4" stroke-width="2.6667" d="M16 9v14"></path>
    <path fill="none" stroke="#fafafa" stroke-linejoin="round" stroke-linecap="round" stroke-miterlimit="4" stroke-width="2.6667" d="M9 16h14"></path>
  </symbol>
  <symbol version="1.1" xmlns="http://www.w3.org/2000/svg" viewBox="0 0 30 32" id="insta">
    <title>insta</title>
    <path fill="#8baa36" d="M21.587 3.301c1.683 0.005 3.295 0.676 4.484 1.865s1.86 2.802 1.865 4.484v12.698c-0.005 1.683-0.676 3.295-1.865 4.484s-2.802 1.86-4.484 1.865h-12.698c-1.682-0.005-3.295-0.676-4.484-1.865s-1.86-2.802-1.865-4.484v-12.698c0.005-1.682 0.676-3.295 1.865-4.484s2.802-1.86 4.484-1.865h12.698zM21.587 0.762h-12.698c-4.889 0-8.889 4-8.889 8.889v12.698c0 4.889 4 8.889 8.889 8.889h12.698c4.889 0 8.889-4 8.889-8.889v-12.698c0-4.889-4-8.889-8.889-8.889z"></path>
    <path fill="#8baa36" d="M23.492 9.654c-0.377 0-0.745-0.112-1.058-0.321s-0.557-0.507-0.702-0.855-0.182-0.731-0.108-1.101c0.074-0.369 0.255-0.709 0.521-0.975s0.606-0.448 0.975-0.521c0.369-0.074 0.752-0.036 1.101 0.108s0.645 0.388 0.855 0.702c0.209 0.313 0.321 0.681 0.321 1.058 0.001 0.25-0.048 0.498-0.144 0.73s-0.236 0.442-0.413 0.619c-0.177 0.177-0.387 0.317-0.619 0.413s-0.479 0.144-0.73 0.144zM15.238 10.923c1.005 0 1.987 0.298 2.822 0.856s1.486 1.351 1.871 2.28c0.384 0.928 0.485 1.95 0.289 2.935s-0.68 1.89-1.39 2.601-1.615 1.194-2.601 1.39c-0.985 0.196-2.007 0.095-2.935-0.289s-1.722-1.036-2.28-1.871c-0.558-0.835-0.856-1.817-0.856-2.822 0.001-1.347 0.537-2.638 1.489-3.59s2.243-1.488 3.59-1.489zM15.238 8.383c-1.507 0-2.98 0.447-4.233 1.284s-2.229 2.027-2.806 3.419c-0.577 1.392-0.728 2.924-0.434 4.402s1.020 2.835 2.085 3.901c1.066 1.066 2.423 1.791 3.901 2.085s3.010 0.143 4.402-0.434c1.392-0.577 2.582-1.553 3.419-2.806s1.284-2.726 1.284-4.233c0-2.021-0.803-3.959-2.232-5.388s-3.367-2.232-5.387-2.232z"></path>
  </symbol>
  <symbol version="1.1" xmlns="http://www.w3.org/2000/svg" viewBox="0 0 32 32" id="logo_desk">
    <title>logo_desk</title>
    <path fill="#8baa36" d="M8.727 0h14.545c4.82 0 8.727 3.907 8.727 8.727v14.545c0 4.82-3.907 8.727-8.727 8.727h-14.545c-4.82 0-8.727-3.907-8.727-8.727v-14.545c0-4.82 3.907-8.727 8.727-8.727z"></path>
    <path fill="none" stroke="#fafafa" stroke-linejoin="round" stroke-linecap="round" stroke-miterlimit="4" stroke-width="1.4545" d="M7.273 7.347v3.966c0 1.132 0.494 2.135 1.26 2.784 0.375 0.317 0.622 0.746 0.622 1.221v6.62c0 0.736 0.633 1.333 1.412 1.333s1.412-0.597 1.412-1.333v-6.62c0-0.476 0.248-0.904 0.622-1.221 0.766-0.649 1.26-1.652 1.26-2.784v0"></path>
    <path fill="none" stroke="#fafafa" stroke-linejoin="round" stroke-linecap="round" stroke-miterlimit="4" stroke-width="1.4545" d="M10.567 11.717v-4.444"></path>
    <path fill="none" stroke="#fafafa" stroke-linejoin="round" stroke-linecap="round" stroke-miterlimit="4" stroke-width="1.4545" d="M23.273 8.208c0-0.491-0.422-0.889-0.941-0.889h-0.941c-1.559 0-2.823 1.194-2.823 2.667v5.333c0 1.159 0.788 2.136 1.882 2.503v4.117c0 0.736 0.633 1.333 1.412 1.333s1.412-0.597 1.412-1.333v-13.732z"></path>
  </symbol>
  <symbol version="1.1" xmlns="http://www.w3.org/2000/svg" viewBox="0 0 32 32" id="switch_off">
    <title>switch_off</title>
    <path fill="#efefef" d="M7.484 8.516h17.548c3.848 0 6.968 3.12 6.968 6.968s-3.12 6.968-6.968 6.968h-17.548c-3.848 0-6.968-3.12-6.968-6.968s3.12-6.968 6.968-6.968z"></path>
    <path fill="#000" d="M13.11 15.484c0 2.993-2.467 5.419-5.51 5.419s-5.51-2.426-5.51-5.419c0-2.993 2.467-5.419 5.51-5.419s5.51 2.426 5.51 5.419z"></path>
  </symbol>
  <symbol version="1.1" xmlns="http://www.w3.org/2000/svg" viewBox="0 0 32 32" id="switch_on">
    <title>switch_on</title>
    <path fill="#8baa36" d="M6.968 8.516h17.548c3.848 0 6.968 3.12 6.968 6.968s-3.12 6.968-6.968 6.968h-17.548c-3.848 0-6.968-3.12-6.968-6.968s3.12-6.968 6.968-6.968z"></path>
    <path fill="#000" d="M29.91 15.484c0 2.993-2.467 5.419-5.51 5.419s-5.51-2.426-5.51-5.419c0-2.993 2.467-5.419 5.51-5.419s5.51 2.426 5.51 5.419z"></path>
  </symbol>
  <symbol version="1.1" xmlns="http://www.w3.org/2000/svg" viewBox="0 0 32 32" id="user_profile_mock">
    <title>user_profile_mock</title>
    <path fill="#d9d9d9" d="M32 16c0 8.837-7.163 16-16 16s-16-7.163-16-16c0-8.837 7.163-16 16-16s16 7.163 16 16z"></path>
  </symbol>
  <symbol version="1.1" xmlns="http://www.w3.org/2000/svg" viewBox="0 0 38 32" id="x">
    <title>x</title>
    <path fill="#8baa36" d="M37.647 4.51c-1.412 0.614-2.906 1.018-4.435 1.2 1.607-0.941 2.815-2.436 3.398-4.204-1.519 0.888-3.179 1.512-4.907 1.843-0.728-0.763-1.603-1.369-2.573-1.783s-2.013-0.626-3.067-0.624c-4.268 0-7.722 3.404-7.722 7.6-0.003 0.584 0.064 1.166 0.199 1.733-3.061-0.143-6.058-0.924-8.799-2.292s-5.167-3.293-7.122-5.653c-0.686 1.156-1.049 2.475-1.050 3.82 0 2.635 1.375 4.965 3.451 6.329-1.23-0.029-2.435-0.355-3.512-0.949v0.094c0 3.686 2.667 6.753 6.196 7.451-0.664 0.177-1.348 0.267-2.034 0.267-0.487 0.001-0.974-0.047-1.452-0.141 0.981 3.019 3.837 5.216 7.22 5.278-2.749 2.118-6.123 3.263-9.594 3.255-0.616-0.001-1.231-0.038-1.843-0.11 3.53 2.254 7.634 3.447 11.823 3.435 14.224 0 21.995-11.584 21.995-21.631 0-0.329-0.008-0.659-0.024-0.98 1.508-1.073 2.813-2.406 3.853-3.937z"></path>
  </symbol>
  <symbol version="1.1" xmlns="http://www.w3.org/2000/svg" viewBox="0 0 43 32" id="yt">
    <title>yt</title>
    <path fill="#8baa36" d="M42.393 7.066c0-3.75-2.759-6.766-6.167-6.766-4.617-0.216-9.326-0.299-14.138-0.299h-1.5c-4.801 0-9.518 0.083-14.135 0.3-3.4 0-6.159 3.033-6.159 6.783-0.208 2.966-0.297 5.932-0.292 8.899-0.008 2.967 0.086 5.936 0.283 8.908 0 3.75 2.759 6.791 6.159 6.791 4.851 0.225 9.826 0.325 14.885 0.317 5.067 0.017 10.029-0.089 14.885-0.317 3.409 0 6.167-3.042 6.167-6.791 0.2-2.975 0.292-5.942 0.284-8.916 0.019-2.967-0.072-5.936-0.272-8.908zM17.253 24.157v-16.375l12.085 8.183-12.085 8.191z"></path>
  </symbol>
</svg>