<svg aria-hidden="true" style="position: absolute; width: 0; height: 0; overflow: hidden;" version="1.1" xmlns="http://www.w3.org/2000/svg" xmlns:xlink="http://www.w3.org/1999/xlink">
<defs>
<symbol id="icon-arrow_header" viewBox="0 0 32 32">
<path fill="#8baa36" style="fill: var(--color1, #8baa36)" d="M25.605 15.158c0 0 0 0 0 0l-0.462 1.329c-0.005 0.015-0.007 0.032-0.003 0.047s0.010 0.031 0.021 0.043l0.905 1.023c0.082 0.096 0.241 0.040 0.245-0.086l0.125-3.696c0.001-0.026-0.005-0.051-0.018-0.073s-0.032-0.040-0.054-0.052c-0.023-0.012-0.049-0.018-0.074-0.016s-0.051 0.010-0.072 0.025l-3.060 2.137c-0.104 0.073-0.064 0.234 0.062 0.249l1.364 0.182c0.016 0.002 0.033 0 0.048-0.006s0.028-0.016 0.039-0.029l0.871-1.112c0.006-0.007 0.013-0.011 0.022-0.013s0.017-0.001 0.025 0.004c0.008 0.004 0.014 0.011 0.017 0.019s0.003 0.017 0.001 0.025c0 0 0 0-0 0z"></path>
<path fill="none" stroke="#8baa36" style="stroke: var(--color1, #8baa36)" stroke-linejoin="round" stroke-linecap="butt" stroke-miterlimit="4" stroke-width="0.5161" d="M3.659 12.557c2.555 2.14 8.685 9.326 11.524 4.835 3.549-5.614-5.999-5.903-5.609-1.059s9.186 8.33 15.238 0.419"></path>
</symbol>
<symbol id="icon-chevron" viewBox="0 0 32 32">
<path fill="none" stroke="#8baa36" style="stroke: var(--color1, #8baa36)" stroke-linejoin="round" stroke-linecap="round" stroke-miterlimit="4" stroke-width="3.2" d="M8 12l8 8 8-8"></path>
</symbol>
<symbol id="icon-cross" viewBox="0 0 32 32">
<path stroke-linejoin="round" stroke-linecap="round" stroke-miterlimit="4" stroke-width="2.2857" d="M24.571 7.429l-17.143 17.143"></path>
<path stroke-linejoin="round" stroke-linecap="round" stroke-miterlimit="4" stroke-width="2.2857" d="M24.571 24.571l-17.143-17.143"></path>
</symbol>
<symbol id="icon-Icon_close" viewBox="0 0 32 32">
<path d="M29.335 2.667l-26.667 26.667zM2.668 2.667l26.667 26.667z"></path>
</symbol>
<symbol id="icon-icon_user" viewBox="0 0 32 32">
<path stroke-linejoin="round" stroke-linecap="round" stroke-miterlimit="4" stroke-width="3" d="M28 29.071c0-2.093 0-3.14-0.258-3.992-0.582-1.918-2.082-3.418-4-4-0.852-0.258-1.898-0.258-3.992-0.258h-7.5c-2.093 0-3.14 0-3.992 0.258-1.918 0.582-3.418 2.082-4 4-0.258 0.852-0.258 1.898-0.258 3.992M22.75 8.821c0 3.728-3.022 6.75-6.75 6.75s-6.75-3.022-6.75-6.75c0-3.728 3.022-6.75 6.75-6.75s6.75 3.022 6.75 6.75z"></path>
</symbol>
<symbol id="icon-icon-arrow-narrow-right" viewBox="0 0 32 32">
<path fill="none" stroke="#3e4462" style="stroke: var(--color2, #3e4462)" stroke-linejoin="round" stroke-linecap="round" stroke-miterlimit="4" stroke-width="3.2" d="M3.2 16h25.6M28.8 16l-9.6-9.6M28.8 16l-9.6 9.6"></path>
</symbol>
<symbol id="icon-icon-arrow-right" viewBox="0 0 32 32">
<path fill="none" stroke="#3e4462" style="stroke: var(--color2, #3e4462)" stroke-linejoin="round" stroke-linecap="round" stroke-miterlimit="4" stroke-width="3.2" d="M3.2 16h25.6M28.8 16l-9.6-9.6M28.8 16l-9.6 9.6"></path>
</symbol>
<symbol id="icon-Iconburger-menu" viewBox="0 0 32 32">
<path stroke-linejoin="round" stroke-linecap="round" stroke-miterlimit="4" stroke-width="2.8571" d="M2.286 16h27.429M2.286 6.857h27.429M2.286 25.143h18.286"></path>
</symbol>
<symbol id="icon-icon-clock" viewBox="0 0 32 32">
<path stroke-linejoin="round" stroke-linecap="round" stroke-miterlimit="4" stroke-width="2.9714" d="M15.998 29.334c7.364 0 13.333-5.97 13.333-13.333s-5.97-13.333-13.333-13.333-13.333 5.97-13.333 13.333c0 7.364 5.97 13.333 13.333 13.333z"></path>
<path stroke-linejoin="round" stroke-linecap="round" stroke-miterlimit="4" stroke-width="2.9714" d="M16 8v8l5.333 2.667"></path>
</symbol>
<symbol id="icon-icon-corner-left" viewBox="0 0 32 32">
<path fill="#a9a9a9" style="fill: var(--color3, #a9a9a9)" opacity="0.73" d="M23.775 2.255c0.24 0.246 0.431 0.538 0.561 0.859s0.197 0.666 0.197 1.014c0 0.348-0.067 0.693-0.197 1.014s-0.321 0.614-0.561 0.859l-10.056 10.311 10.056 10.311c0.485 0.497 0.757 1.171 0.757 1.873s-0.272 1.377-0.757 1.873c-0.485 0.497-1.142 0.776-1.827 0.776s-1.343-0.279-1.827-0.776l-11.896-12.198c-0.24-0.246-0.431-0.538-0.561-0.859s-0.197-0.666-0.197-1.014c0-0.348 0.067-0.693 0.197-1.014s0.321-0.614 0.561-0.859l11.896-12.198c0.985-1.010 2.644-1.010 3.654 0.027z"></path>
</symbol>
<symbol id="icon-icon-corner-right" viewBox="0 0 32 32">
<path fill="#a9a9a9" style="fill: var(--color3, #a9a9a9)" opacity="0.73" d="M8.225 2.255c-0.24 0.246-0.431 0.538-0.561 0.859s-0.197 0.666-0.197 1.014c0 0.348 0.067 0.693 0.197 1.014s0.321 0.614 0.561 0.859l10.056 10.311-10.056 10.311c-0.485 0.497-0.757 1.171-0.757 1.873s0.272 1.377 0.757 1.873c0.485 0.497 1.142 0.776 1.827 0.776s1.343-0.279 1.827-0.776l11.896-12.198c0.24-0.246 0.431-0.538 0.561-0.859s0.197-0.666 0.197-1.014c0-0.348-0.067-0.693-0.197-1.014s-0.321-0.614-0.561-0.859l-11.896-12.198c-0.985-1.010-2.644-1.010-3.654 0.027z"></path>
</symbol>
<symbol id="icon-icon-dropdown" viewBox="0 0 32 32">
<path fill="none" stroke="#8baa36" style="stroke: var(--color1, #8baa36)" stroke-linejoin="round" stroke-linecap="round" stroke-miterlimit="4" stroke-width="5.3333" d="M29.333 9.333l-13.333 13.333-13.333-13.333"></path>
</symbol>
<symbol id="icon-icon-edit" viewBox="0 0 32 32">
<path stroke-linejoin="round" stroke-linecap="round" stroke-miterlimit="4" stroke-width="3.4667" d="M2.251 14.574c0.046-0.414 0.069-0.62 0.131-0.813 0.055-0.171 0.134-0.335 0.233-0.485 0.112-0.169 0.259-0.317 0.553-0.611l10.29-10.29c0.874-0.874 2.292-0.874 3.167 0v0c0.874 0.874 0.874 2.292 0 3.167l-10.29 10.29c-0.294 0.294-0.441 0.441-0.611 0.553-0.15 0.099-0.314 0.178-0.485 0.233-0.193 0.063-0.4 0.085-0.813 0.131l-2.447 0.272 0.272-2.447z"></path>
</symbol>
<symbol id="icon-icon-envelope" viewBox="0 0 32 32">
<path fill="none" stroke="#fafafa" style="stroke: var(--color4, #fafafa)" stroke-linejoin="round" stroke-linecap="round" stroke-miterlimit="4" stroke-width="2.1333" d="M4.622 5.333h22.756c0.754 0.002 1.476 0.284 2.009 0.783s0.833 1.177 0.836 1.883v16c-0.002 0.707-0.303 1.384-0.836 1.883s-1.255 0.781-2.009 0.783h-22.756c-0.754-0.002-1.476-0.284-2.009-0.783s-0.833-1.177-0.836-1.883v-16c0.002-0.707 0.303-1.384 0.836-1.883s1.255-0.781 2.009-0.783v0z"></path>
<path fill="none" stroke="#fafafa" style="stroke: var(--color4, #fafafa)" stroke-linejoin="round" stroke-linecap="round" stroke-miterlimit="4" stroke-width="2.1333" d="M30.222 7.999l-14.222 9.333-14.222-9.333"></path>
</symbol>
<symbol id="icon-icon-pick" viewBox="0 0 32 32">
<path fill="#8baa36" style="fill: var(--color1, #8baa36)" d="M24.876 3.239c0.867-1.279 2.607-1.613 3.886-0.746s1.613 2.607 0.746 3.886l-15.174 22.381c-1.11 1.637-3.521 1.637-4.631 0l-7.207-10.631c-0.867-1.279-0.533-3.019 0.746-3.886s3.019-0.533 3.886 0.746l4.892 7.215 12.858-18.966z"></path>
</symbol>
<symbol id="icon-icon-search" viewBox="0 0 32 32">
<path stroke-linejoin="round" stroke-linecap="round" stroke-miterlimit="4" stroke-width="2.6667" d="M14.667 25.333c5.891 0 10.667-4.776 10.667-10.667s-4.776-10.667-10.667-10.667c-5.891 0-10.667 4.776-10.667 10.667s4.776 10.667 10.667 10.667z"></path>
<path stroke-linejoin="round" stroke-linecap="round" stroke-miterlimit="4" stroke-width="2.6667" d="M28.001 28l-5.8-5.8"></path>
</symbol>
<symbol id="icon-icon-serach-hover" viewBox="0 0 32 32">
<path fill="none" stroke="#8baa36" style="stroke: var(--color1, #8baa36)" stroke-linejoin="round" stroke-linecap="round" stroke-miterlimit="4" stroke-width="2.6667" d="M14.667 25.333c5.891 0 10.667-4.776 10.667-10.667s-4.776-10.667-10.667-10.667c-5.891 0-10.667 4.776-10.667 10.667s4.776 10.667 10.667 10.667z"></path>
<path fill="none" stroke="#8baa36" style="stroke: var(--color1, #8baa36)" stroke-linejoin="round" stroke-linecap="round" stroke-miterlimit="4" stroke-width="2.6667" d="M28.001 28l-5.8-5.8"></path>
</symbol>
<symbol id="icon-icon-trash" viewBox="0 0 32 32">
<path stroke-linejoin="round" stroke-linecap="round" stroke-miterlimit="4" stroke-width="2.7429" d="M21.333 8v-1.067c0-1.493 0-2.24-0.291-2.811-0.256-0.502-0.664-0.91-1.165-1.165-0.57-0.291-1.317-0.291-2.811-0.291h-2.133c-1.493 0-2.24 0-2.811 0.291-0.502 0.256-0.91 0.664-1.165 1.165-0.291 0.57-0.291 1.317-0.291 2.811v1.067M13.333 15.333v6.667M18.667 15.333v6.667M4 8h24M25.333 8v14.933c0 2.24 0 3.36-0.436 4.216-0.384 0.753-0.995 1.365-1.748 1.748-0.856 0.436-1.976 0.436-4.216 0.436h-5.867c-2.24 0-3.36 0-4.216-0.436-0.753-0.384-1.365-0.995-1.748-1.748-0.436-0.856-0.436-1.976-0.436-4.216v-14.933"></path>
</symbol>
<symbol id="icon-icon-user-add-foto" viewBox="0 0 32 32">
<path fill="#8baa36" style="fill: var(--color1, #8baa36)" d="M32 16c0 8.837-7.163 16-16 16s-16-7.163-16-16c0-8.837 7.163-16 16-16s16 7.163 16 16z"></path>
<path fill="none" stroke="#fafafa" style="stroke: var(--color4, #fafafa)" stroke-linejoin="round" stroke-linecap="round" stroke-miterlimit="4" stroke-width="2.6667" d="M16 9v14"></path>
<path fill="none" stroke="#fafafa" style="stroke: var(--color4, #fafafa)" stroke-linejoin="round" stroke-linecap="round" stroke-miterlimit="4" stroke-width="2.6667" d="M9 16h14"></path>
</symbol>
<symbol id="icon-logo_desk" viewBox="0 0 32 32">
<path fill="#8baa36" style="fill: var(--color1, #8baa36)" d="M8.727 0h14.545c4.82 0 8.727 3.907 8.727 8.727v14.545c0 4.82-3.907 8.727-8.727 8.727h-14.545c-4.82 0-8.727-3.907-8.727-8.727v-14.545c0-4.82 3.907-8.727 8.727-8.727z"></path>
<path fill="none" stroke="#fafafa" style="stroke: var(--color4, #fafafa)" stroke-linejoin="round" stroke-linecap="round" stroke-miterlimit="4" stroke-width="1.4545" d="M7.273 7.347v3.966c0 1.132 0.494 2.135 1.26 2.784 0.375 0.317 0.622 0.746 0.622 1.221v6.62c0 0.736 0.633 1.333 1.412 1.333s1.412-0.597 1.412-1.333v-6.62c0-0.476 0.248-0.904 0.622-1.221 0.766-0.649 1.26-1.652 1.26-2.784v0"></path>
<path fill="none" stroke="#fafafa" style="stroke: var(--color4, #fafafa)" stroke-linejoin="round" stroke-linecap="round" stroke-miterlimit="4" stroke-width="1.4545" d="M10.567 11.717v-4.444"></path>
<path fill="none" stroke="#fafafa" style="stroke: var(--color4, #fafafa)" stroke-linejoin="round" stroke-linecap="round" stroke-miterlimit="4" stroke-width="1.4545" d="M23.273 8.208c0-0.491-0.422-0.889-0.941-0.889h-0.941c-1.559 0-2.823 1.194-2.823 2.667v5.333c0 1.159 0.788 2.136 1.882 2.503v4.117c0 0.736 0.633 1.333 1.412 1.333s1.412-0.597 1.412-1.333v-13.732z"></path>
</symbol>
<symbol id="icon-switch_off" viewBox="0 0 32 32">
<path fill="#efefef" style="fill: var(--color5, #efefef)" d="M7.484 8.516h17.548c3.848 0 6.968 3.12 6.968 6.968s-3.12 6.968-6.968 6.968h-17.548c-3.848 0-6.968-3.12-6.968-6.968s3.12-6.968 6.968-6.968z"></path>
<path fill="#000" style="fill: var(--color6, #000)" d="M13.11 15.484c0 2.993-2.467 5.419-5.51 5.419s-5.51-2.426-5.51-5.419c0-2.993 2.467-5.419 5.51-5.419s5.51 2.426 5.51 5.419z"></path>
</symbol>
<symbol id="icon-switch_on" viewBox="0 0 32 32">
<path fill="#8baa36" style="fill: var(--color1, #8baa36)" d="M6.968 8.516h17.548c3.848 0 6.968 3.12 6.968 6.968s-3.12 6.968-6.968 6.968h-17.548c-3.848 0-6.968-3.12-6.968-6.968s3.12-6.968 6.968-6.968z"></path>
<path fill="#000" style="fill: var(--color6, #000)" d="M29.91 15.484c0 2.993-2.467 5.419-5.51 5.419s-5.51-2.426-5.51-5.419c0-2.993 2.467-5.419 5.51-5.419s5.51 2.426 5.51 5.419z"></path>
</symbol>
<symbol id="icon-user_profile_mock" viewBox="0 0 32 32">
<path fill="#d9d9d9" style="fill: var(--color7, #d9d9d9)" d="M32 16c0 8.837-7.163 16-16 16s-16-7.163-16-16c0-8.837 7.163-16 16-16s16 7.163 16 16z"></path>
</symbol>
</defs>
</svg>
