<svg width="141" height="43" viewBox="0 0 141 43" fill="none" xmlns="http://www.w3.org/2000/svg">
<path d="M0 14.3333C0 6.41725 6.41725 0 14.3333 0H112.333C128.165 0 141 12.8345 141 28.6667C141 36.5827 134.583 43 126.667 43H28.6667C12.8345 43 0 30.1655 0 14.3333Z" fill="#8BAA36"/>
<path d="M37.352 25.964H40.768V27H36.078V17.242H37.352V25.964ZM45.467 27.126C44.7483 27.126 44.095 26.9627 43.507 26.636C42.9283 26.3093 42.471 25.8473 42.135 25.25C41.8083 24.6433 41.645 23.9433 41.645 23.15C41.645 22.366 41.813 21.6753 42.149 21.078C42.4943 20.4713 42.961 20.0093 43.549 19.692C44.137 19.3653 44.795 19.202 45.523 19.202C46.251 19.202 46.909 19.3653 47.497 19.692C48.085 20.0093 48.547 20.4667 48.883 21.064C49.2283 21.6613 49.401 22.3567 49.401 23.15C49.401 23.9433 49.2236 24.6433 48.869 25.25C48.5236 25.8473 48.0523 26.3093 47.455 26.636C46.8576 26.9627 46.195 27.126 45.467 27.126ZM45.467 26.006C45.9243 26.006 46.3536 25.8987 46.755 25.684C47.1563 25.4693 47.4783 25.1473 47.721 24.718C47.973 24.2887 48.099 23.766 48.099 23.15C48.099 22.534 47.9776 22.0113 47.735 21.582C47.4923 21.1527 47.175 20.8353 46.783 20.63C46.391 20.4153 45.9663 20.308 45.509 20.308C45.0423 20.308 44.613 20.4153 44.221 20.63C43.8383 20.8353 43.5303 21.1527 43.297 21.582C43.0636 22.0113 42.947 22.534 42.947 23.15C42.947 23.7753 43.059 24.3027 43.283 24.732C43.5163 25.1613 43.8243 25.4833 44.207 25.698C44.5896 25.9033 45.0096 26.006 45.467 26.006ZM54.24 19.202C54.9027 19.202 55.4814 19.3467 55.976 19.636C56.48 19.9253 56.8534 20.2893 57.096 20.728V19.328H58.384V27.168C58.384 27.868 58.2347 28.4887 57.936 29.03C57.6374 29.5807 57.208 30.01 56.648 30.318C56.0974 30.626 55.4534 30.78 54.716 30.78C53.708 30.78 52.868 30.542 52.196 30.066C51.524 29.59 51.1274 28.9413 51.006 28.12H52.266C52.406 28.5867 52.6954 28.96 53.134 29.24C53.5727 29.5293 54.1 29.674 54.716 29.674C55.416 29.674 55.9854 29.4547 56.424 29.016C56.872 28.5773 57.096 27.9613 57.096 27.168V25.558C56.844 26.006 56.4707 26.3793 55.976 26.678C55.4814 26.9767 54.9027 27.126 54.24 27.126C53.5587 27.126 52.938 26.958 52.378 26.622C51.8274 26.286 51.3934 25.8147 51.076 25.208C50.7587 24.6013 50.6 23.9107 50.6 23.136C50.6 22.352 50.7587 21.666 51.076 21.078C51.3934 20.4807 51.8274 20.0187 52.378 19.692C52.938 19.3653 53.5587 19.202 54.24 19.202ZM57.096 23.15C57.096 22.5713 56.9794 22.0673 56.746 21.638C56.5127 21.2087 56.1954 20.882 55.794 20.658C55.402 20.4247 54.968 20.308 54.492 20.308C54.016 20.308 53.582 20.42 53.19 20.644C52.798 20.868 52.4854 21.1947 52.252 21.624C52.0187 22.0533 51.902 22.5573 51.902 23.136C51.902 23.724 52.0187 24.2373 52.252 24.676C52.4854 25.1053 52.798 25.4367 53.19 25.67C53.582 25.894 54.016 26.006 54.492 26.006C54.968 26.006 55.402 25.894 55.794 25.67C56.1954 25.4367 56.5127 25.1053 56.746 24.676C56.9794 24.2373 57.096 23.7287 57.096 23.15ZM67.6154 27.126C66.8967 27.126 66.2434 26.9627 65.6554 26.636C65.0767 26.3093 64.6194 25.8473 64.2834 25.25C63.9567 24.6433 63.7934 23.9433 63.7934 23.15C63.7934 22.366 63.9614 21.6753 64.2974 21.078C64.6427 20.4713 65.1094 20.0093 65.6974 19.692C66.2854 19.3653 66.9434 19.202 67.6714 19.202C68.3994 19.202 69.0574 19.3653 69.6454 19.692C70.2334 20.0093 70.6954 20.4667 71.0314 21.064C71.3767 21.6613 71.5494 22.3567 71.5494 23.15C71.5494 23.9433 71.3721 24.6433 71.0174 25.25C70.6721 25.8473 70.2007 26.3093 69.6034 26.636C69.0061 26.9627 68.3434 27.126 67.6154 27.126ZM67.6154 26.006C68.0727 26.006 68.5021 25.8987 68.9034 25.684C69.3047 25.4693 69.6267 25.1473 69.8694 24.718C70.1214 24.2887 70.2474 23.766 70.2474 23.15C70.2474 22.534 70.1261 22.0113 69.8834 21.582C69.6407 21.1527 69.3234 20.8353 68.9314 20.63C68.5394 20.4153 68.1147 20.308 67.6574 20.308C67.1907 20.308 66.7614 20.4153 66.3694 20.63C65.9867 20.8353 65.6787 21.1527 65.4454 21.582C65.2121 22.0113 65.0954 22.534 65.0954 23.15C65.0954 23.7753 65.2074 24.3027 65.4314 24.732C65.6647 25.1613 65.9727 25.4833 66.3554 25.698C66.7381 25.9033 67.1581 26.006 67.6154 26.006ZM80.0285 19.328V27H78.7545V25.866C78.5118 26.258 78.1712 26.566 77.7325 26.79C77.3032 27.0047 76.8272 27.112 76.3045 27.112C75.7072 27.112 75.1705 26.9907 74.6945 26.748C74.2185 26.496 73.8405 26.1227 73.5605 25.628C73.2898 25.1333 73.1545 24.5313 73.1545 23.822V19.328H74.4145V23.654C74.4145 24.41 74.6058 24.9933 74.9885 25.404C75.3712 25.8053 75.8938 26.006 76.5565 26.006C77.2378 26.006 77.7745 25.796 78.1665 25.376C78.5585 24.956 78.7545 24.3447 78.7545 23.542V19.328H80.0285ZM83.7336 20.378V24.9C83.7336 25.2733 83.8129 25.5393 83.9716 25.698C84.1302 25.8473 84.4056 25.922 84.7976 25.922H85.7356V27H84.5876C83.8782 27 83.3462 26.8367 82.9916 26.51C82.6369 26.1833 82.4596 25.6467 82.4596 24.9V20.378H81.4656V19.328H82.4596V17.396H83.7336V19.328H85.7356V20.378H83.7336Z" fill="#FAFAFA"/>
<path d="M93.75 21.5H103.75" stroke="#FAFAFA" stroke-width="1.3" stroke-linecap="round" stroke-linejoin="round"/>
<path d="M100 16.25L105.25 21.5L100 26.75" stroke="#FAFAFA" stroke-width="1.3" stroke-linecap="round" stroke-linejoin="round"/>
</svg>
