<svg width="125" height="43" viewBox="0 0 125 43" fill="none" xmlns="http://www.w3.org/2000/svg">
<path d="M0 14.3333C0 6.41725 6.41725 0 14.3333 0H96.3333C112.165 0 125 12.8345 125 28.6667C125 36.5827 118.583 43 110.667 43H28.6667C12.8345 43 0 30.1655 0 14.3333Z" fill="#8BAA36"/>
<path d="M29.352 25.964H32.768V27H28.078V17.242H29.352V25.964ZM37.467 27.126C36.7483 27.126 36.095 26.9627 35.507 26.636C34.9283 26.3093 34.471 25.8473 34.135 25.25C33.8083 24.6433 33.645 23.9433 33.645 23.15C33.645 22.366 33.813 21.6753 34.149 21.078C34.4943 20.4713 34.961 20.0093 35.549 19.692C36.137 19.3653 36.795 19.202 37.523 19.202C38.251 19.202 38.909 19.3653 39.497 19.692C40.085 20.0093 40.547 20.4667 40.883 21.064C41.2283 21.6613 41.401 22.3567 41.401 23.15C41.401 23.9433 41.2236 24.6433 40.869 25.25C40.5236 25.8473 40.0523 26.3093 39.455 26.636C38.8576 26.9627 38.195 27.126 37.467 27.126ZM37.467 26.006C37.9243 26.006 38.3536 25.8987 38.755 25.684C39.1563 25.4693 39.4783 25.1473 39.721 24.718C39.973 24.2887 40.099 23.766 40.099 23.15C40.099 22.534 39.9776 22.0113 39.735 21.582C39.4923 21.1527 39.175 20.8353 38.783 20.63C38.391 20.4153 37.9663 20.308 37.509 20.308C37.0423 20.308 36.613 20.4153 36.221 20.63C35.8383 20.8353 35.5303 21.1527 35.297 21.582C35.0636 22.0113 34.947 22.534 34.947 23.15C34.947 23.7753 35.059 24.3027 35.283 24.732C35.5163 25.1613 35.8243 25.4833 36.207 25.698C36.5896 25.9033 37.0096 26.006 37.467 26.006ZM46.24 19.202C46.9027 19.202 47.4814 19.3467 47.976 19.636C48.48 19.9253 48.8534 20.2893 49.096 20.728V19.328H50.384V27.168C50.384 27.868 50.2347 28.4887 49.936 29.03C49.6374 29.5807 49.208 30.01 48.648 30.318C48.0974 30.626 47.4534 30.78 46.716 30.78C45.708 30.78 44.868 30.542 44.196 30.066C43.524 29.59 43.1274 28.9413 43.006 28.12H44.266C44.406 28.5867 44.6954 28.96 45.134 29.24C45.5727 29.5293 46.1 29.674 46.716 29.674C47.416 29.674 47.9854 29.4547 48.424 29.016C48.872 28.5773 49.096 27.9613 49.096 27.168V25.558C48.844 26.006 48.4707 26.3793 47.976 26.678C47.4814 26.9767 46.9027 27.126 46.24 27.126C45.5587 27.126 44.938 26.958 44.378 26.622C43.8274 26.286 43.3934 25.8147 43.076 25.208C42.7587 24.6013 42.6 23.9107 42.6 23.136C42.6 22.352 42.7587 21.666 43.076 21.078C43.3934 20.4807 43.8274 20.0187 44.378 19.692C44.938 19.3653 45.5587 19.202 46.24 19.202ZM49.096 23.15C49.096 22.5713 48.9794 22.0673 48.746 21.638C48.5127 21.2087 48.1954 20.882 47.794 20.658C47.402 20.4247 46.968 20.308 46.492 20.308C46.016 20.308 45.582 20.42 45.19 20.644C44.798 20.868 44.4854 21.1947 44.252 21.624C44.0187 22.0533 43.902 22.5573 43.902 23.136C43.902 23.724 44.0187 24.2373 44.252 24.676C44.4854 25.1053 44.798 25.4367 45.19 25.67C45.582 25.894 46.016 26.006 46.492 26.006C46.968 26.006 47.402 25.894 47.794 25.67C48.1954 25.4367 48.5127 25.1053 48.746 24.676C48.9794 24.2373 49.096 23.7287 49.096 23.15ZM59.6154 27.126C58.8967 27.126 58.2434 26.9627 57.6554 26.636C57.0767 26.3093 56.6194 25.8473 56.2834 25.25C55.9567 24.6433 55.7934 23.9433 55.7934 23.15C55.7934 22.366 55.9614 21.6753 56.2974 21.078C56.6427 20.4713 57.1094 20.0093 57.6974 19.692C58.2854 19.3653 58.9434 19.202 59.6714 19.202C60.3994 19.202 61.0574 19.3653 61.6454 19.692C62.2334 20.0093 62.6954 20.4667 63.0314 21.064C63.3767 21.6613 63.5494 22.3567 63.5494 23.15C63.5494 23.9433 63.3721 24.6433 63.0174 25.25C62.6721 25.8473 62.2007 26.3093 61.6034 26.636C61.0061 26.9627 60.3434 27.126 59.6154 27.126ZM59.6154 26.006C60.0727 26.006 60.5021 25.8987 60.9034 25.684C61.3047 25.4693 61.6267 25.1473 61.8694 24.718C62.1214 24.2887 62.2474 23.766 62.2474 23.15C62.2474 22.534 62.1261 22.0113 61.8834 21.582C61.6407 21.1527 61.3234 20.8353 60.9314 20.63C60.5394 20.4153 60.1147 20.308 59.6574 20.308C59.1907 20.308 58.7614 20.4153 58.3694 20.63C57.9867 20.8353 57.6787 21.1527 57.4454 21.582C57.2121 22.0113 57.0954 22.534 57.0954 23.15C57.0954 23.7753 57.2074 24.3027 57.4314 24.732C57.6647 25.1613 57.9727 25.4833 58.3554 25.698C58.7381 25.9033 59.1581 26.006 59.6154 26.006ZM72.0285 19.328V27H70.7545V25.866C70.5118 26.258 70.1712 26.566 69.7325 26.79C69.3032 27.0047 68.8272 27.112 68.3045 27.112C67.7072 27.112 67.1705 26.9907 66.6945 26.748C66.2185 26.496 65.8405 26.1227 65.5605 25.628C65.2898 25.1333 65.1545 24.5313 65.1545 23.822V19.328H66.4145V23.654C66.4145 24.41 66.6058 24.9933 66.9885 25.404C67.3712 25.8053 67.8938 26.006 68.5565 26.006C69.2378 26.006 69.7745 25.796 70.1665 25.376C70.5585 24.956 70.7545 24.3447 70.7545 23.542V19.328H72.0285ZM75.7336 20.378V24.9C75.7336 25.2733 75.8129 25.5393 75.9716 25.698C76.1302 25.8473 76.4056 25.922 76.7976 25.922H77.7356V27H76.5876C75.8782 27 75.3462 26.8367 74.9916 26.51C74.6369 26.1833 74.4596 25.6467 74.4596 24.9V20.378H73.4656V19.328H74.4596V17.396H75.7336V19.328H77.7356V20.378H75.7336Z" fill="#FAFAFA"/>
<path d="M85.75 21.5H95.75" stroke="#FAFAFA" stroke-width="1.3" stroke-linecap="round" stroke-linejoin="round"/>
<path d="M92 16.25L97.25 21.5L92 26.75" stroke="#FAFAFA" stroke-width="1.3" stroke-linecap="round" stroke-linejoin="round"/>
</svg>
