<svg version="1.1" xmlns="http://www.w3.org/2000/svg" width="32" height="32" viewBox="0 0 32 32">
<title>icon_user</title>
<path fill="none" stroke-linejoin="round" stroke-linecap="round" stroke-miterlimit="4" stroke-width="3" stroke="#000" d="M28 29.071c0-2.093 0-3.14-0.258-3.992-0.582-1.918-2.082-3.418-4-4-0.852-0.258-1.898-0.258-3.992-0.258h-7.5c-2.093 0-3.14 0-3.992 0.258-1.918 0.582-3.418 2.082-4 4-0.258 0.852-0.258 1.898-0.258 3.992M22.75 8.821c0 3.728-3.022 6.75-6.75 6.75s-6.75-3.022-6.75-6.75c0-3.728 3.022-6.75 6.75-6.75s6.75 3.022 6.75 6.75z"></path>
</svg>