<svg version="1.1" xmlns="http://www.w3.org/2000/svg" width="32" height="32" viewBox="0 0 32 32">
<title>icon-corner-right</title>
<path fill="#a9a9a9" opacity="0.73" d="M8.225 2.255c-0.24 0.246-0.431 0.538-0.561 0.859s-0.197 0.666-0.197 1.014c0 0.348 0.067 0.693 0.197 1.014s0.321 0.614 0.561 0.859l10.056 10.311-10.056 10.311c-0.485 0.497-0.757 1.171-0.757 1.873s0.272 1.377 0.757 1.873c0.485 0.497 1.142 0.776 1.827 0.776s1.343-0.279 1.827-0.776l11.896-12.198c0.24-0.246 0.431-0.538 0.561-0.859s0.197-0.666 0.197-1.014c0-0.348-0.067-0.693-0.197-1.014s-0.321-0.614-0.561-0.859l-11.896-12.198c-0.985-1.010-2.644-1.010-3.654 0.027z"></path>
</svg>